<svg width="197" height="48" viewBox="0 0 197 48" fill="none" xmlns="http://www.w3.org/2000/svg">
<path fill-rule="evenodd" clip-rule="evenodd" d="M34.5868 8.40061L24.9 5.80505C24.2313 5.62586 23.6892 6.04184 23.6892 6.73416V16.7627C23.6892 17.455 24.2313 18.1615 24.9 18.3407L34.5868 20.9362C35.2555 21.1154 35.7977 20.6994 35.7977 20.0071V9.97862C35.7977 9.2863 35.2555 8.5798 34.5868 8.40061ZM24.9 2.04436C22.2251 1.32762 20.0566 2.99154 20.0566 5.76083V15.7893C20.0566 18.5586 22.2251 21.3846 24.9 22.1013L34.5868 24.6969C37.2617 25.4137 39.4302 23.7497 39.4302 20.9804V10.952C39.4302 8.18266 37.2617 5.35667 34.5868 4.63993L24.9 2.04436Z" fill="#128A73"/>
<path fill-rule="evenodd" clip-rule="evenodd" d="M26.9812 16.5707L14.8727 13.3263C14.204 13.1471 13.6618 13.5631 13.6618 14.2554V26.791C13.6618 27.4833 14.204 28.1898 14.8727 28.369L26.9812 31.6135C27.6499 31.7927 28.192 31.3767 28.192 30.6844V18.1488C28.192 17.4564 27.6499 16.7499 26.9812 16.5707ZM14.8727 9.5656C12.1978 8.84886 10.0293 10.5128 10.0293 13.2821V25.8177C10.0293 28.587 12.1978 31.413 14.8727 32.1297L26.9812 35.3742C29.6561 36.0909 31.8245 34.427 31.8245 31.6577V19.1221C31.8245 16.3528 29.6561 13.5268 26.9812 12.8101L14.8727 9.5656Z" fill="#15A588"/>
<path fill-rule="evenodd" clip-rule="evenodd" d="M19.3736 24.7409L4.84339 20.8475C4.17466 20.6683 3.63254 21.0843 3.63254 21.7766V36.8194C3.63254 37.5117 4.17466 38.2182 4.84339 38.3974L19.3736 42.2907C20.0423 42.4699 20.5844 42.0539 20.5844 41.3616V26.3189C20.5844 25.6266 20.0423 24.9201 19.3736 24.7409ZM4.84339 17.0868C2.16846 16.3701 0 18.034 0 20.8033V35.846C0 38.6153 2.16846 41.4413 4.84339 42.1581L19.3736 46.0514C22.0485 46.7682 24.2169 45.1042 24.2169 42.335V27.2922C24.2169 24.5229 22.0485 21.6969 19.3736 20.9802L4.84339 17.0868Z" fill="#20EBC1"/>
<path d="M60.2474 21.336C60.2474 20.664 59.9834 20.08 59.4554 19.584C58.9434 19.088 58.2154 18.84 57.2714 18.84C56.4714 18.84 55.8394 19.008 55.3754 19.344C54.9114 19.664 54.6794 20.104 54.6794 20.664C54.6794 20.952 54.7354 21.216 54.8474 21.456C54.9594 21.68 55.1514 21.888 55.4234 22.08C55.7114 22.256 56.0794 22.416 56.5274 22.56C56.9914 22.704 57.5754 22.84 58.2794 22.968C60.0394 23.288 61.3834 23.824 62.3114 24.576C63.2394 25.328 63.7034 26.44 63.7034 27.912V28.2C63.7034 28.984 63.5594 29.696 63.2714 30.336C62.9994 30.96 62.5994 31.496 62.0714 31.944C61.5434 32.392 60.9034 32.736 60.1514 32.976C59.3994 33.216 58.5514 33.336 57.6074 33.336C56.5034 33.336 55.5274 33.184 54.6794 32.88C53.8474 32.56 53.1514 32.128 52.5914 31.584C52.0314 31.024 51.6074 30.376 51.3194 29.64C51.0314 28.888 50.8874 28.072 50.8874 27.192V26.472H54.0554V27.048C54.0554 28.056 54.3434 28.864 54.9194 29.472C55.5114 30.064 56.4234 30.36 57.6554 30.36C58.6154 30.36 59.3274 30.152 59.7914 29.736C60.2554 29.32 60.4874 28.824 60.4874 28.248C60.4874 27.976 60.4394 27.72 60.3434 27.48C60.2474 27.224 60.0794 27 59.8394 26.808C59.5994 26.6 59.2714 26.416 58.8554 26.256C58.4394 26.096 57.9114 25.96 57.2714 25.848C56.4234 25.704 55.6474 25.52 54.9434 25.296C54.2394 25.056 53.6234 24.744 53.0954 24.36C52.5834 23.976 52.1834 23.496 51.8954 22.92C51.6074 22.344 51.4634 21.64 51.4634 20.808V20.664C51.4634 19.976 51.5994 19.344 51.8714 18.768C52.1594 18.176 52.5514 17.664 53.0474 17.232C53.5594 16.8 54.1674 16.464 54.8714 16.224C55.5914 15.984 56.3914 15.864 57.2714 15.864C58.2634 15.864 59.1434 16.008 59.9114 16.296C60.6794 16.568 61.3194 16.944 61.8314 17.424C62.3594 17.904 62.7514 18.456 63.0074 19.08C63.2794 19.704 63.4154 20.36 63.4154 21.048V21.912H60.2474V21.336ZM69.2548 28.032C69.2708 28.384 69.3508 28.712 69.4948 29.016C69.6548 29.304 69.8628 29.56 70.1188 29.784C70.3908 29.992 70.6948 30.16 71.0308 30.288C71.3828 30.4 71.7508 30.456 72.1348 30.456C72.8868 30.456 73.4628 30.328 73.8628 30.072C74.2628 29.8 74.5508 29.48 74.7268 29.112L77.3188 30.552C77.1748 30.856 76.9748 31.176 76.7188 31.512C76.4628 31.832 76.1268 32.128 75.7108 32.4C75.3108 32.672 74.8148 32.896 74.2228 33.072C73.6468 33.248 72.9668 33.336 72.1828 33.336C71.2868 33.336 70.4708 33.192 69.7348 32.904C68.9988 32.616 68.3588 32.2 67.8148 31.656C67.2868 31.112 66.8708 30.448 66.5668 29.664C66.2788 28.88 66.1348 27.992 66.1348 27V26.856C66.1348 25.944 66.2868 25.112 66.5908 24.36C66.9108 23.608 67.3428 22.968 67.8867 22.44C68.4308 21.912 69.0628 21.504 69.7828 21.216C70.5188 20.912 71.3028 20.76 72.1348 20.76C73.1588 20.76 74.0388 20.944 74.7748 21.312C75.5108 21.664 76.1188 22.12 76.5988 22.68C77.0788 23.224 77.4308 23.832 77.6548 24.504C77.8788 25.16 77.9908 25.8 77.9908 26.424V28.032H69.2548ZM72.1108 23.496C71.3428 23.496 70.7188 23.696 70.2388 24.096C69.7588 24.48 69.4468 24.928 69.3028 25.44H74.9188C74.8228 24.88 74.5188 24.416 74.0068 24.048C73.5108 23.68 72.8788 23.496 72.1108 23.496ZM92.9021 28.632C92.6301 30.04 91.9821 31.176 90.9581 32.04C89.9501 32.904 88.5981 33.336 86.9021 33.336C86.0221 33.336 85.1981 33.2 84.4301 32.928C83.6781 32.656 83.0221 32.264 82.4621 31.752C81.9021 31.24 81.4621 30.608 81.1421 29.856C80.8221 29.104 80.6621 28.248 80.6621 27.288V27C80.6621 26.04 80.8221 25.176 81.1421 24.408C81.4621 23.64 81.9021 22.984 82.4621 22.44C83.0381 21.896 83.7021 21.48 84.4541 21.192C85.2221 20.904 86.0381 20.76 86.9021 20.76C88.5661 20.76 89.9101 21.192 90.9341 22.056C91.9741 22.92 92.6301 24.056 92.9021 25.464L89.9261 26.232C89.8301 25.528 89.5261 24.92 89.0141 24.408C88.5021 23.896 87.7821 23.64 86.8541 23.64C86.4221 23.64 86.0141 23.72 85.6301 23.88C85.2461 24.04 84.9101 24.272 84.6221 24.576C84.3341 24.864 84.1021 25.224 83.9261 25.656C83.7661 26.072 83.6861 26.544 83.6861 27.072V27.216C83.6861 27.744 83.7661 28.216 83.9261 28.632C84.1021 29.032 84.3341 29.368 84.6221 29.64C84.9101 29.912 85.2461 30.12 85.6301 30.264C86.0141 30.392 86.4221 30.456 86.8541 30.456C87.7821 30.456 88.4861 30.224 88.9661 29.76C89.4621 29.296 89.7821 28.672 89.9261 27.888L92.9021 28.632ZM104.045 21.096H107.069V33H104.045V31.272H103.613C103.085 32.648 101.949 33.336 100.205 33.336C99.6134 33.336 99.0614 33.24 98.5494 33.048C98.0374 32.856 97.5894 32.56 97.2054 32.16C96.8214 31.76 96.5174 31.264 96.2934 30.672C96.0854 30.064 95.9814 29.352 95.9814 28.536V21.096H99.0054V27.912C99.0054 28.76 99.2054 29.424 99.6054 29.904C100.005 30.368 100.605 30.6 101.405 30.6C102.317 30.6 102.981 30.312 103.397 29.736C103.829 29.144 104.045 28.344 104.045 27.336V21.096ZM110.101 21.096H115.141V22.824H115.573C115.797 22.168 116.173 21.664 116.701 21.312C117.245 20.944 117.893 20.76 118.645 20.76C119.829 20.76 120.781 21.136 121.501 21.888C122.221 22.624 122.581 23.752 122.581 25.272V25.8L119.461 26.088V25.752C119.461 25.096 119.293 24.576 118.957 24.192C118.621 23.792 118.117 23.592 117.445 23.592C116.773 23.592 116.245 23.824 115.861 24.288C115.477 24.752 115.285 25.416 115.285 26.28V30.12H118.021V33H109.813V30.12H112.261V23.976H110.101V21.096ZM128.036 28.032C128.052 28.384 128.132 28.712 128.276 29.016C128.436 29.304 128.644 29.56 128.9 29.784C129.172 29.992 129.476 30.16 129.812 30.288C130.164 30.4 130.532 30.456 130.916 30.456C131.668 30.456 132.244 30.328 132.644 30.072C133.044 29.8 133.332 29.48 133.508 29.112L136.1 30.552C135.956 30.856 135.756 31.176 135.5 31.512C135.244 31.832 134.908 32.128 134.492 32.4C134.092 32.672 133.596 32.896 133.004 33.072C132.428 33.248 131.748 33.336 130.964 33.336C130.068 33.336 129.252 33.192 128.516 32.904C127.78 32.616 127.14 32.2 126.596 31.656C126.068 31.112 125.652 30.448 125.348 29.664C125.06 28.88 124.916 27.992 124.916 27V26.856C124.916 25.944 125.068 25.112 125.372 24.36C125.692 23.608 126.124 22.968 126.668 22.44C127.212 21.912 127.844 21.504 128.564 21.216C129.3 20.912 130.084 20.76 130.916 20.76C131.94 20.76 132.82 20.944 133.556 21.312C134.292 21.664 134.9 22.12 135.38 22.68C135.86 23.224 136.212 23.832 136.436 24.504C136.66 25.16 136.772 25.8 136.772 26.424V28.032H128.036ZM130.892 23.496C130.124 23.496 129.5 23.696 129.02 24.096C128.54 24.48 128.228 24.928 128.084 25.44H133.7C133.604 24.88 133.3 24.416 132.788 24.048C132.292 23.68 131.66 23.496 130.892 23.496Z" fill="#15A588"/>
<path d="M139.299 16.2H145.395C147.475 16.2 149.019 16.688 150.027 17.664C151.035 18.624 151.539 20.12 151.539 22.152V27.048C151.539 29.08 151.035 30.584 150.027 31.56C149.019 32.52 147.475 33 145.395 33H139.299V29.952H140.883V19.224H139.299V16.2ZM145.395 29.976C146.499 29.976 147.267 29.72 147.699 29.208C148.147 28.68 148.371 27.864 148.371 26.76V22.152C148.371 21.192 148.147 20.464 147.699 19.968C147.267 19.472 146.499 19.224 145.395 19.224H144.051V29.976H145.395ZM162.467 31.272C162.147 32.024 161.699 32.56 161.123 32.88C160.547 33.184 159.875 33.336 159.107 33.336C158.387 33.336 157.707 33.2 157.067 32.928C156.443 32.656 155.891 32.256 155.411 31.728C154.931 31.2 154.547 30.56 154.259 29.808C153.987 29.056 153.851 28.2 153.851 27.24V26.856C153.851 25.912 153.987 25.064 154.259 24.312C154.531 23.56 154.899 22.92 155.363 22.392C155.827 21.864 156.363 21.464 156.971 21.192C157.595 20.904 158.259 20.76 158.963 20.76C159.811 20.76 160.491 20.904 161.003 21.192C161.531 21.48 161.947 21.928 162.251 22.536H162.683V21.096H165.707V29.4C165.707 29.88 165.923 30.12 166.355 30.12H166.811V33H164.747C164.203 33 163.755 32.84 163.403 32.52C163.067 32.2 162.899 31.784 162.899 31.272H162.467ZM159.779 30.456C160.659 30.456 161.363 30.168 161.891 29.592C162.419 29 162.683 28.2 162.683 27.192V26.904C162.683 25.896 162.419 25.104 161.891 24.528C161.363 23.936 160.659 23.64 159.779 23.64C158.899 23.64 158.195 23.936 157.667 24.528C157.139 25.104 156.875 25.896 156.875 26.904V27.192C156.875 28.2 157.139 29 157.667 29.592C158.195 30.168 158.899 30.456 159.779 30.456ZM169.122 21.096H172.65V16.2H175.674V21.096H179.97V23.976H175.674V29.4C175.674 29.88 175.89 30.12 176.322 30.12H179.538V33H174.498C173.954 33 173.506 32.824 173.154 32.472C172.818 32.12 172.65 31.672 172.65 31.128V23.976H169.122V21.096ZM191.857 31.272C191.537 32.024 191.089 32.56 190.513 32.88C189.937 33.184 189.265 33.336 188.497 33.336C187.777 33.336 187.097 33.2 186.457 32.928C185.833 32.656 185.281 32.256 184.801 31.728C184.321 31.2 183.937 30.56 183.649 29.808C183.377 29.056 183.241 28.2 183.241 27.24V26.856C183.241 25.912 183.377 25.064 183.649 24.312C183.921 23.56 184.289 22.92 184.753 22.392C185.217 21.864 185.753 21.464 186.361 21.192C186.985 20.904 187.649 20.76 188.353 20.76C189.201 20.76 189.881 20.904 190.393 21.192C190.921 21.48 191.337 21.928 191.641 22.536H192.073V21.096H195.097V29.4C195.097 29.88 195.313 30.12 195.745 30.12H196.201V33H194.137C193.593 33 193.145 32.84 192.793 32.52C192.457 32.2 192.289 31.784 192.289 31.272H191.857ZM189.169 30.456C190.049 30.456 190.753 30.168 191.281 29.592C191.809 29 192.073 28.2 192.073 27.192V26.904C192.073 25.896 191.809 25.104 191.281 24.528C190.753 23.936 190.049 23.64 189.169 23.64C188.289 23.64 187.585 23.936 187.057 24.528C186.529 25.104 186.265 25.896 186.265 26.904V27.192C186.265 28.2 186.529 29 187.057 29.592C187.585 30.168 188.289 30.456 189.169 30.456Z" fill="#128A73"/>
</svg>
