<svg width="768" height="584" viewBox="0 0 768 584" fill="none" xmlns="http://www.w3.org/2000/svg">
<mask id="mask0_5_21595" style="mask-type:alpha" maskUnits="userSpaceOnUse" x="0" y="-184" width="768" height="768">
<rect width="768" height="768" transform="translate(0 -184)" fill="url(#paint0_radial_5_21595)"/>
</mask>
<g mask="url(#mask0_5_21595)">
<circle cx="384" cy="200" r="47.5" stroke="#E4E7EC"/>
<circle cx="384" cy="200" r="95.5" stroke="#E4E7EC"/>
<circle cx="384" cy="200" r="143.5" stroke="#E4E7EC"/>
<circle cx="384" cy="200" r="191.5" stroke="#E4E7EC"/>
<circle cx="384" cy="200" r="239.5" stroke="#E4E7EC"/>
<circle cx="384" cy="200" r="287.5" stroke="#E4E7EC"/>
<circle cx="384" cy="200" r="335.5" stroke="#E4E7EC"/>
<circle cx="384" cy="200" r="383.5" stroke="#E4E7EC"/>
</g>
<path fill-rule="evenodd" clip-rule="evenodd" d="M398.587 184.4L388.9 181.805C388.231 181.626 387.689 182.042 387.689 182.734V192.763C387.689 193.455 388.231 194.161 388.9 194.341L398.587 196.936C399.256 197.115 399.798 196.699 399.798 196.007V185.978C399.798 185.286 399.256 184.58 398.587 184.4ZM388.9 178.044C386.225 177.327 384.057 178.991 384.057 181.761V191.789C384.057 194.558 386.225 197.384 388.9 198.101L398.587 200.697C401.262 201.414 403.43 199.75 403.43 196.98V186.952C403.43 184.183 401.262 181.357 398.587 180.64L388.9 178.044Z" fill="#128A73"/>
<path fill-rule="evenodd" clip-rule="evenodd" d="M390.981 192.571L378.873 189.326C378.204 189.147 377.662 189.563 377.662 190.255V202.791C377.662 203.483 378.204 204.19 378.873 204.369L390.981 207.613C391.65 207.793 392.192 207.377 392.192 206.684V194.149C392.192 193.456 391.65 192.75 390.981 192.571ZM378.873 185.566C376.198 184.849 374.029 186.513 374.029 189.282V201.818C374.029 204.587 376.198 207.413 378.873 208.13L390.981 211.374C393.656 212.091 395.825 210.427 395.825 207.658V195.122C395.825 192.353 393.656 189.527 390.981 188.81L378.873 185.566Z" fill="#15A588"/>
<path fill-rule="evenodd" clip-rule="evenodd" d="M383.374 200.741L368.843 196.848C368.175 196.668 367.633 197.084 367.633 197.777V212.82C367.633 213.512 368.175 214.218 368.843 214.398L383.374 218.291C384.042 218.47 384.584 218.054 384.584 217.362V202.319C384.584 201.627 384.042 200.92 383.374 200.741ZM368.843 193.087C366.168 192.37 364 194.034 364 196.803V211.846C364 214.615 366.168 217.441 368.843 218.158L383.374 222.052C386.048 222.768 388.217 221.104 388.217 218.335V203.292C388.217 200.523 386.048 197.697 383.374 196.98L368.843 193.087Z" fill="#20EBC1"/>
<defs>
<radialGradient id="paint0_radial_5_21595" cx="0" cy="0" r="1" gradientUnits="userSpaceOnUse" gradientTransform="translate(384 384) rotate(90) scale(384 384)">
<stop/>
<stop offset="1" stop-opacity="0"/>
</radialGradient>
</defs>
</svg>
