<svg width="46" height="46" viewBox="0 0 46 46" fill="none" xmlns="http://www.w3.org/2000/svg">
<rect x="3" y="3" width="40" height="40" rx="20" fill="#475467"/>
<rect x="3" y="3" width="40" height="40" rx="20" stroke="#182230" stroke-width="6"/>
<path d="M30.4997 22.5833C30.4997 26.4953 27.3284 29.6667 23.4163 29.6667C22.519 29.6667 21.6607 29.4998 20.8706 29.1954C20.7262 29.1398 20.654 29.112 20.5965 29.0987C20.54 29.0857 20.4991 29.0803 20.4412 29.0781C20.3823 29.0758 20.3177 29.0825 20.1885 29.0958L15.921 29.537C15.5141 29.579 15.3106 29.6001 15.1906 29.5269C15.0861 29.4631 15.0149 29.3566 14.996 29.2356C14.9742 29.0968 15.0714 28.9168 15.2659 28.557L16.6289 26.034C16.7412 25.8262 16.7973 25.7223 16.8227 25.6225C16.8478 25.5238 16.8539 25.4527 16.8459 25.3512C16.8377 25.2484 16.7926 25.1147 16.7025 24.8472C16.4629 24.1363 16.333 23.375 16.333 22.5833C16.333 18.6713 19.5043 15.5 23.4163 15.5C27.3284 15.5 30.4997 18.6713 30.4997 22.5833Z" stroke="white" stroke-width="1.66667" stroke-linecap="round" stroke-linejoin="round"/>
<path fill-rule="evenodd" clip-rule="evenodd" d="M23.4138 20.4577C22.664 19.592 21.4137 19.3591 20.4743 20.1519C19.535 20.9446 19.4027 22.27 20.1404 23.2076C20.5974 23.7884 21.7446 24.8493 22.5513 25.5725C22.8476 25.8381 22.9958 25.9709 23.1736 26.0244C23.3261 26.0703 23.5014 26.0703 23.6539 26.0244C23.8317 25.9709 23.9799 25.8381 24.2762 25.5725C25.083 24.8493 26.2301 23.7884 26.6871 23.2076C27.4248 22.27 27.3087 20.9362 26.3532 20.1519C25.3976 19.3675 24.1635 19.592 23.4138 20.4577Z" stroke="white" stroke-width="1.66667" stroke-linecap="round" stroke-linejoin="round"/>
</svg>
