<svg width="46" height="46" viewBox="0 0 46 46" fill="none" xmlns="http://www.w3.org/2000/svg">
<rect x="3" y="3" width="40" height="40" rx="20" fill="#475467"/>
<rect x="3" y="3" width="40" height="40" rx="20" stroke="#182230" stroke-width="6"/>
<path d="M20.4997 24.6667C20.4997 24.6667 21.5934 25.9167 23.4163 25.9167C25.2393 25.9167 26.333 24.6667 26.333 24.6667M25.708 20.5H25.7163M21.1247 20.5H21.133M23.4163 29.6667C27.3284 29.6667 30.4997 26.4953 30.4997 22.5833C30.4997 18.6713 27.3284 15.5 23.4163 15.5C19.5043 15.5 16.333 18.6713 16.333 22.5833C16.333 23.375 16.4629 24.1363 16.7025 24.8472C16.7926 25.1147 16.8377 25.2484 16.8459 25.3512C16.8539 25.4527 16.8478 25.5238 16.8227 25.6225C16.7973 25.7223 16.7412 25.8262 16.6289 26.034L15.2659 28.557C15.0714 28.9168 14.9742 29.0968 14.996 29.2356C15.0149 29.3566 15.0861 29.4631 15.1906 29.5269C15.3106 29.6001 15.5141 29.579 15.921 29.537L20.1885 29.0958C20.3177 29.0825 20.3823 29.0758 20.4412 29.0781C20.4991 29.0803 20.54 29.0857 20.5965 29.0987C20.654 29.112 20.7262 29.1398 20.8706 29.1954C21.6607 29.4998 22.519 29.6667 23.4163 29.6667ZM26.1247 20.5C26.1247 20.7301 25.9381 20.9167 25.708 20.9167C25.4779 20.9167 25.2913 20.7301 25.2913 20.5C25.2913 20.2699 25.4779 20.0833 25.708 20.0833C25.9381 20.0833 26.1247 20.2699 26.1247 20.5ZM21.5413 20.5C21.5413 20.7301 21.3548 20.9167 21.1247 20.9167C20.8945 20.9167 20.708 20.7301 20.708 20.5C20.708 20.2699 20.8945 20.0833 21.1247 20.0833C21.3548 20.0833 21.5413 20.2699 21.5413 20.5Z" stroke="white" stroke-width="1.66667" stroke-linecap="round" stroke-linejoin="round"/>
</svg>
