<svg width="46" height="46" viewBox="0 0 46 46" fill="none" xmlns="http://www.w3.org/2000/svg">
<rect x="3" y="3" width="40" height="40" rx="20" fill="#475467"/>
<rect x="3" y="3" width="40" height="40" rx="20" stroke="#182230" stroke-width="6"/>
<path d="M20.5 20.5V18C20.5 16.6193 19.3807 15.5 18 15.5C16.6193 15.5 15.5 16.6193 15.5 18C15.5 19.3807 16.6193 20.5 18 20.5H20.5ZM20.5 20.5V25.5M20.5 20.5H25.5M20.5 25.5V28C20.5 29.3807 19.3807 30.5 18 30.5C16.6193 30.5 15.5 29.3807 15.5 28C15.5 26.6193 16.6193 25.5 18 25.5H20.5ZM20.5 25.5H25.5M25.5 25.5H28C29.3807 25.5 30.5 26.6193 30.5 28C30.5 29.3807 29.3807 30.5 28 30.5C26.6193 30.5 25.5 29.3807 25.5 28V25.5ZM25.5 25.5V20.5M25.5 20.5V18C25.5 16.6193 26.6193 15.5 28 15.5C29.3807 15.5 30.5 16.6193 30.5 18C30.5 19.3807 29.3807 20.5 28 20.5H25.5Z" stroke="white" stroke-width="1.66667" stroke-linecap="round" stroke-linejoin="round"/>
</svg>
